<?xml version="1.0" standalone="no"?>
<!DOCTYPE svg PUBLIC "-//W3C//DTD SVG 20010904//EN"
 "http://www.w3.org/TR/2001/REC-SVG-20010904/DTD/svg10.dtd">
<svg version="1.0" xmlns="http://www.w3.org/2000/svg"
 width="3047.000000pt" height="2667.000000pt" viewBox="0 0 3047.000000 2667.000000"
 preserveAspectRatio="xMidYMid meet">

<g transform="translate(0.000000,2667.000000) scale(0.100000,-0.100000)"
 stroke="none">
<path d="M15065 26497 c-1326 -1248 -2900 -2307 -5595 -3764 l-145 -78 -5
-517 c-3 -325 -9 -520 -15 -526 -5 -5 -878 -310 -1940 -677 -1062 -367 -1935
-670 -1942 -674 -8 -4 199 -465 633 -1411 355 -773 651 -1419 658 -1436 l14
-31 198 39 c614 119 1430 260 2019 347 187 28 354 53 371 56 29 5 46 27 172
218 814 1235 1286 2552 1407 3927 9 102 19 188 23 192 4 4 180 104 392 223
1122 632 1984 1159 2743 1677 380 260 578 403 1157 841 l37 28 199 -153 c702
-540 1596 -1138 2577 -1723 141 -84 173 -108 112 -85 -15 6 -29 9 -31 7 -2 -2
331 -207 740 -456 l743 -452 7 -82 c102 -1229 515 -2476 1199 -3612 88 -147
313 -495 320 -495 1 0 126 -16 277 -35 593 -76 1237 -172 1854 -276 197 -33
359 -59 360 -57 17 25 1255 2742 1252 2746 -3 3 -827 289 -1831 637 -1004 348
-1828 634 -1831 638 -14 14 -23 288 -24 687 l0 435 -103 54 c-380 201 -1097
600 -1542 859 -1649 959 -2963 1894 -4008 2852 -93 85 -192 176 -221 201 l-51
46 -180 -170z m-5924 -5543 c-228 -917 -642 -1779 -1243 -2587 -171 -229 -485
-604 -496 -592 -4 3 -86 473 -184 1043 -129 760 -173 1039 -165 1044 7 4 489
297 1072 651 583 355 1061 644 1063 643 1 -2 -20 -92 -47 -202z m13145 -524
c517 -314 940 -574 942 -578 2 -7 -295 -1765 -314 -1855 -5 -26 -9 -24 -84 68
-672 812 -1179 1774 -1438 2725 -45 167 -55 210 -49 210 3 0 427 -257 943
-570z"/>
<path d="M15128 22913 c-5 -102 -28 -155 -154 -353 -123 -196 -161 -286 -170
-410 -12 -152 33 -261 194 -474 162 -214 201 -273 218 -333 20 -68 15 -141
-15 -207 -11 -25 -16 -46 -12 -46 18 0 142 143 166 191 37 72 49 147 35 217
-7 31 -38 125 -71 208 -73 188 -82 226 -82 344 0 92 2 97 41 170 126 232 128
425 7 609 -23 36 -67 90 -98 119 l-54 54 -5 -89z"/>
<path d="M15390 22273 c-85 -134 -107 -310 -57 -448 8 -22 31 -73 51 -114 95
-198 84 -360 -35 -530 -27 -39 -44 -71 -38 -71 22 0 177 90 256 148 99 74 164
146 204 228 27 55 32 76 32 137 0 79 -23 172 -56 227 -11 19 -74 90 -139 156
-125 129 -154 175 -165 264 -3 28 -10 50 -15 50 -4 0 -22 -21 -38 -47z"/>
<path d="M14666 22294 c-138 -33 -268 -127 -315 -229 -46 -99 -26 -215 54
-318 61 -77 130 -126 316 -224 318 -169 400 -255 344 -363 -22 -43 -2 -37 48
13 57 56 75 116 58 191 -16 73 -55 131 -166 247 -52 54 -115 127 -141 161
-135 184 -168 355 -99 521 9 21 -14 22 -99 1z"/>
<path d="M16145 21792 c25 -136 114 -230 257 -273 37 -11 80 -31 95 -44 l28
-23 -60 20 c-73 24 -151 20 -213 -11 -23 -12 -42 -23 -42 -25 0 -3 32 -26 71
-51 122 -82 252 -113 349 -85 33 10 37 9 68 -27 38 -43 99 -133 109 -160 3
-10 -17 4 -45 30 -29 27 -71 57 -95 67 -50 23 -157 26 -202 6 l-30 -14 63 -60
c103 -98 233 -152 332 -136 l37 6 37 -91 c20 -50 36 -95 36 -101 0 -5 -26 17
-57 49 -62 63 -127 92 -202 90 -69 -1 -74 -8 -41 -59 44 -66 127 -147 176
-171 24 -11 71 -26 104 -32 l60 -11 10 -56 c6 -30 13 -68 16 -85 l4 -30 -17
25 c-63 87 -134 130 -216 130 -46 0 -48 -1 -41 -22 33 -108 132 -222 230 -264
l64 -28 0 -64 0 -64 -33 44 c-40 52 -111 98 -165 105 l-40 5 9 -40 c28 -128
81 -213 169 -275 l54 -37 -3 -58 c-3 -66 -16 -88 -26 -44 -13 60 -127 162
-180 162 -14 0 -15 -9 -10 -57 15 -135 60 -231 138 -298 l41 -35 -18 -75 c-10
-41 -19 -75 -21 -75 -2 0 -9 24 -15 54 -14 68 -57 137 -111 176 -54 39 -59 32
-59 -86 0 -122 23 -191 92 -272 15 -18 28 -40 28 -50 -1 -9 -18 -50 -39 -90
l-37 -74 4 65 c6 89 -18 156 -75 216 -40 42 -45 44 -55 28 -21 -39 -38 -178
-29 -238 10 -62 42 -142 67 -170 9 -11 13 -26 9 -37 -7 -25 14 -41 26 -19 7
12 25 15 72 15 87 0 152 29 220 101 50 52 107 144 107 172 0 7 -16 9 -52 4
-70 -10 -134 -34 -192 -74 l-47 -33 14 34 c36 87 41 91 108 105 88 18 146 56
195 130 38 56 92 188 82 199 -9 9 -115 -29 -160 -58 -26 -16 -63 -47 -82 -69
-42 -45 -42 -45 -19 42 l17 67 58 16 c70 19 138 77 173 146 31 61 55 145 55
192 0 36 -2 39 -22 33 -76 -23 -161 -103 -212 -200 l-27 -50 6 70 c10 119 10
120 70 150 67 32 118 90 146 164 21 56 37 206 26 235 -6 15 -10 15 -35 2 -71
-37 -144 -146 -176 -266 l-15 -55 0 117 -1 116 48 34 c80 58 131 190 117 300
-10 73 -27 138 -35 138 -4 0 -24 -18 -45 -41 -42 -47 -82 -126 -91 -182 -10
-59 -19 -52 -32 24 l-12 70 30 38 c84 104 91 249 19 410 l-20 46 -24 -27 c-29
-34 -62 -120 -71 -187 l-7 -51 -24 52 -24 53 23 49 c18 40 23 67 23 136 0 82
-2 91 -42 171 -24 46 -52 95 -63 109 -19 23 -21 24 -34 7 -22 -28 -39 -132
-34 -201 l6 -64 -27 32 c-54 64 -53 58 -35 126 13 51 14 74 5 118 -15 77 -67
167 -138 242 -77 80 -86 74 -80 -50 3 -65 11 -103 34 -162 l31 -78 -30 21
c-16 12 -36 38 -45 58 -44 103 -56 125 -94 166 -47 51 -99 78 -187 99 l-64 15
7 -37z"/>
<path d="M13755 21758 c-30 -35 -72 -96 -93 -137 -33 -67 -37 -83 -36 -150 0
-42 3 -92 7 -111 6 -31 3 -40 -27 -74 l-33 -39 0 79 c0 79 -25 194 -43 194
-27 0 -102 -139 -126 -232 -19 -72 -13 -130 20 -203 l23 -50 -22 -47 c-23 -50
-35 -53 -35 -8 0 54 -67 210 -90 210 -13 0 -51 -98 -66 -174 -23 -109 -1 -206
64 -281 l29 -32 -16 -87 -16 -87 -12 62 c-7 34 -24 85 -36 113 -26 56 -91 131
-105 122 -17 -10 -35 -135 -30 -204 7 -87 39 -162 94 -212 24 -22 48 -40 54
-40 6 0 10 -39 9 -102 l0 -103 -24 64 c-30 81 -82 157 -136 199 -24 17 -46 32
-51 32 -14 0 -9 -174 7 -226 29 -97 93 -169 180 -200 32 -12 31 -9 48 -168 l5
-49 -34 64 c-41 77 -92 131 -159 170 -72 42 -79 40 -71 -23 23 -174 114 -297
243 -330 45 -11 42 -6 69 -110 2 -10 7 -28 10 -40 5 -15 -11 -3 -45 34 -52 57
-137 108 -205 123 -29 6 -29 6 -23 -32 11 -68 73 -178 128 -227 51 -46 122
-76 180 -76 23 0 30 -8 52 -57 13 -32 23 -60 21 -61 -1 -2 -22 9 -46 26 -63
44 -200 84 -228 67 -15 -9 41 -113 95 -172 62 -70 135 -105 217 -105 41 -1 69
-6 80 -16 16 -13 18 -13 23 0 3 8 5 19 3 24 -1 5 9 29 24 54 34 59 58 141 58
202 0 55 -27 185 -40 193 -14 9 -81 -66 -103 -115 -15 -32 -21 -66 -21 -118
l0 -73 -40 79 -40 80 32 37 c74 83 111 207 98 328 l-8 67 -26 -14 c-36 -19
-96 -83 -117 -126 -10 -19 -21 -57 -24 -85 l-7 -50 -22 82 -23 81 54 51 c77
73 127 194 127 308 0 33 -1 35 -27 28 -69 -16 -153 -100 -169 -168 l-8 -32 -7
45 c-14 85 -11 106 16 118 39 18 114 91 142 139 25 43 63 151 63 179 0 30 -92
8 -148 -36 -15 -12 -42 -42 -60 -68 l-34 -47 7 70 c4 39 10 73 14 76 3 3 28
14 54 24 66 24 154 112 195 194 41 83 41 91 -4 91 -70 0 -116 -22 -177 -82
l-59 -58 7 50 c14 102 15 103 83 117 77 15 132 43 187 94 52 48 121 146 111
157 -4 4 -38 7 -74 7 -85 -1 -158 -37 -215 -110 -45 -56 -44 -48 7 80 l31 80
70 1 c119 1 201 39 308 142 26 26 47 49 47 53 0 16 -75 31 -133 27 -75 -5
-122 -26 -189 -87 l-52 -46 23 41 c13 23 45 71 73 108 45 60 52 65 76 58 15
-4 65 -7 112 -7 75 0 93 4 154 33 38 17 91 48 118 68 56 42 54 53 -19 78 -65
22 -128 19 -198 -9 l-60 -24 35 29 c20 16 71 40 116 54 125 40 201 116 238
244 l15 52 -28 0 c-44 0 -122 -27 -173 -59 -57 -36 -101 -95 -129 -172 -12
-32 -36 -71 -55 -90 -19 -18 -34 -31 -34 -28 0 3 11 33 25 66 44 108 56 283
19 283 -7 0 -38 -28 -69 -62z"/>
<path d="M14385 21069 c-3 -8 -83 -249 -179 -536 l-174 -522 51 -17 c364 -120
667 -380 829 -712 28 -56 48 -106 44 -109 -3 -4 -6 -2 -6 4 0 21 -138 190
-210 256 -193 179 -473 345 -735 437 -49 17 -91 32 -92 34 -2 1 78 245 177
541 99 296 180 542 180 546 0 10 -122 49 -132 43 -9 -6 -431 -1274 -425 -1280
2 -2 51 -9 108 -14 354 -31 733 -205 1000 -460 l54 -51 -55 39 c-229 165 -524
262 -793 262 l-69 0 6 38 c4 20 9 49 12 64 5 23 1 30 -21 38 -14 5 -41 10 -59
10 l-34 0 -30 -122 c-17 -68 -29 -124 -27 -126 2 -3 33 1 68 7 91 16 278 14
388 -5 191 -32 427 -125 614 -243 54 -34 99 -60 101 -58 6 5 -33 147 -62 229
-36 99 -104 239 -154 318 -129 198 -315 361 -482 422 -32 11 -58 22 -58 23 0
6 252 730 255 734 3 2 24 -2 49 -9 60 -16 106 -6 106 25 0 19 7 24 43 29 l42
7 -35 29 c-39 33 -220 126 -262 136 -19 4 -29 2 -33 -7z"/>
<path d="M15850 21051 c-110 -47 -220 -119 -220 -143 0 -4 20 -8 45 -8 41 0
45 -2 45 -25 0 -32 37 -42 92 -26 22 7 44 9 48 4 8 -8 250 -708 250 -722 0 -5
-21 -16 -47 -26 -279 -104 -530 -406 -657 -789 -41 -125 -54 -192 -34 -180 7
4 42 27 78 50 159 102 396 201 570 239 101 22 335 31 429 16 40 -6 76 -9 79
-7 2 3 -9 58 -25 123 l-29 118 -45 0 c-76 -1 -78 -4 -64 -78 l12 -64 -126 -7
c-141 -7 -252 -29 -386 -76 -137 -49 -239 -105 -400 -220 -64 -46 95 94 180
159 272 207 557 323 865 351 63 6 115 12 117 14 3 3 -425 1277 -431 1283 -2 2
-126 -36 -134 -42 -1 -1 79 -243 178 -538 99 -295 180 -540 180 -545 0 -5 -46
-26 -102 -47 -404 -148 -723 -381 -930 -675 -28 -40 37 104 82 180 98 168 252
335 401 435 93 63 259 147 347 175 37 13 71 26 75 30 5 4 -72 247 -170 539
-131 391 -182 531 -193 530 -8 0 -44 -13 -80 -28z"/>
<path d="M14846 20974 c-21 -31 -36 -58 -33 -60 2 -2 167 -3 365 -2 l362 3
-45 58 -45 57 -284 0 -283 0 -37 -56z"/>
<path d="M14657 20883 c-4 -3 -7 -12 -7 -20 0 -11 94 -13 525 -13 518 0 525 0
525 20 0 20 -7 20 -518 20 -285 0 -522 -3 -525 -7z"/>
<path d="M14556 20809 c-42 -33 -34 -53 46 -106 70 -46 74 -52 123 -149 27
-55 59 -113 71 -128 l20 -28 359 1 c416 2 367 -13 439 136 46 94 69 121 148
174 66 44 75 91 21 112 -14 5 -277 9 -612 9 -580 0 -589 0 -615 -21z"/>
<path d="M14820 20360 c-11 -11 -20 -29 -20 -40 0 -11 9 -29 20 -40 19 -19 33
-20 354 -20 184 0 342 3 351 6 37 15 38 82 1 106 -6 4 -163 8 -348 8 -325 0
-339 -1 -358 -20z"/>
<path d="M14840 20219 c0 -12 20 -44 45 -70 25 -26 45 -53 45 -59 0 -7 82 -10
245 -10 151 0 245 4 245 10 0 5 20 32 45 60 25 28 45 60 45 70 0 19 -9 20
-335 20 l-335 0 0 -21z"/>
<path d="M14980 20049 c0 -6 9 -47 20 -91 29 -113 65 -331 90 -547 12 -102 26
-193 31 -203 8 -15 20 -18 52 -16 50 4 47 -6 82 255 21 159 80 506 100 591 l5
22 -190 0 c-130 0 -190 -3 -190 -11z"/>
<path d="M14450 17214 c-281 -26 -531 -90 -796 -204 -375 -161 -651 -419 -750
-701 -38 -108 -45 -273 -15 -390 23 -92 73 -204 122 -275 143 -209 500 -470
922 -674 304 -147 503 -214 1507 -510 678 -199 725 -216 855 -312 153 -113
233 -260 223 -413 -18 -276 -281 -413 -748 -389 -144 7 -1709 -11 -2220 -26
-525 -15 -1092 -38 -1535 -62 -801 -42 -1384 -24 -1873 58 -286 48 -762 163
-762 185 0 3 39 27 88 54 613 341 1070 620 1637 1000 634 424 879 609 1111
840 213 212 331 372 394 536 89 231 50 414 -129 601 -167 176 -379 284 -711
363 -418 99 -932 118 -1560 59 -539 -51 -1110 -184 -1585 -371 -377 -148 -733
-378 -1035 -669 -65 -63 -123 -114 -129 -114 -6 0 -52 -33 -101 -72 -84 -68
-107 -93 -77 -84 71 23 71 22 -21 -101 -220 -293 -283 -395 -346 -566 -114
-308 -135 -634 -61 -945 61 -256 165 -424 432 -702 53 -55 94 -102 92 -104
-14 -12 -907 -550 -926 -557 -14 -5 -160 -32 -326 -59 -462 -78 -1245 -214
-1612 -282 -399 -74 -493 -79 -635 -33 -318 102 -574 340 -679 631 -50 137
-65 238 -65 429 0 489 164 1026 491 1605 82 144 143 228 225 306 169 163 352
219 492 150 113 -55 491 -488 681 -781 84 -130 54 -120 369 -120 293 0 360 8
530 62 206 65 377 193 505 378 70 100 69 111 -25 235 -334 443 -828 770 -1358
901 -200 48 -327 63 -571 63 -227 0 -334 -9 -515 -45 -466 -93 -1021 -417
-1406 -822 -474 -498 -795 -1131 -909 -1795 -95 -552 56 -1094 410 -1470 324
-344 689 -509 1328 -602 214 -31 321 -27 560 20 637 125 1713 309 2662 455
492 76 543 94 957 331 273 157 479 305 670 483 49 44 99 83 114 87 16 4 200
-32 512 -100 944 -208 1214 -246 2012 -288 323 -17 1583 -17 2000 0 698 28
1071 34 2335 42 1293 7 1323 7 1460 29 277 44 467 97 627 176 269 133 467 346
577 623 11 26 27 65 36 87 l17 40 42 -120 c123 -351 321 -576 651 -736 218
-106 455 -180 718 -223 87 -15 361 -43 642 -66 824 -68 1490 -136 2112 -215
149 -19 292 -35 318 -35 60 0 182 41 250 85 79 50 130 99 179 174 84 126 79
60 77 997 -2 685 0 832 11 841 9 8 34 9 83 3 39 -5 73 -9 78 -10 4 0 16 -9 27
-20 20 -20 20 -33 20 -863 0 -920 -2 -884 57 -1002 76 -149 331 -326 579 -401
81 -25 105 -27 254 -28 143 -1 177 2 255 22 190 50 275 114 317 241 l23 66 3
879 c2 614 6 884 14 893 6 7 23 13 38 13 54 0 1211 -213 2042 -376 337 -66
441 -90 457 -105 21 -20 21 -21 21 -912 0 -954 0 -949 49 -1045 88 -172 454
-380 780 -442 193 -37 403 -35 529 6 62 20 125 72 151 123 41 80 42 113 39
1242 l-3 1086 -42 84 c-73 146 -223 284 -370 339 -187 70 -2085 457 -3292 670
-217 39 -400 75 -408 81 -19 16 -20 1019 0 1019 50 0 1094 -187 1652 -295 303
-59 350 -66 435 -63 112 4 181 31 253 97 63 59 92 127 91 222 0 68 -4 84 -36
151 -71 142 -192 227 -448 312 -181 60 -1205 247 -2535 462 -325 53 -445 59
-555 31 -188 -49 -315 -161 -372 -325 -22 -64 -23 -79 -20 -307 1 -132 0 -429
-4 -661 l-6 -420 -132 18 c-72 9 -137 18 -143 18 -10 0 -13 114 -13 533 0 495
-1 539 -19 609 -86 336 -408 601 -902 743 -230 67 -368 87 -999 144 -1508 139
-2837 217 -4440 261 -372 11 -1903 21 -1980 14z m1480 -774 c1242 -21 2314
-64 3470 -140 569 -38 1357 -111 1455 -136 89 -23 205 -88 279 -155 91 -84
163 -183 176 -242 12 -56 14 -646 2 -664 -6 -10 -72 -6 -292 17 -539 55 -1135
107 -1627 140 -405 28 -743 -56 -996 -246 -199 -149 -340 -356 -463 -681 -22
-57 -43 -103 -48 -103 -5 0 -64 53 -130 118 -278 271 -586 495 -971 704 -414
225 -1075 465 -1733 628 -288 72 -368 105 -449 186 -79 79 -117 165 -121 275
-3 76 -1 92 22 136 45 89 133 142 268 162 87 12 471 13 1158 1z m-5117 -290
c119 -11 226 -24 237 -28 20 -7 11 -22 -104 -180 -301 -414 -542 -670 -916
-971 -283 -228 -479 -357 -1115 -736 -349 -208 -404 -239 -410 -233 -13 12
-77 202 -99 289 -35 139 -46 223 -46 350 0 259 78 487 250 731 288 408 843
711 1433 782 174 21 517 19 770 -4z m9328 -1660 c375 -32 1038 -96 1102 -106
l37 -6 0 -684 0 -685 -42 5 c-75 11 -643 65 -948 91 -687 59 -655 53 -745 136
-54 50 -82 102 -118 215 -78 248 -86 498 -22 750 46 180 108 258 240 300 59
19 107 17 496 -16z"/>
<path d="M27575 15786 c-92 -29 -139 -70 -177 -151 -23 -50 -23 -53 -23 -465
0 -408 0 -416 23 -471 50 -125 159 -234 276 -278 46 -17 571 -141 731 -172 71
-14 164 5 223 46 35 23 56 49 82 100 l35 68 3 366 c2 248 0 385 -8 426 -17 89
-64 178 -130 249 -104 110 -141 124 -666 240 -260 58 -303 63 -369 42z"/>
<path d="M14040 11589 c-4643 -108 -9167 -842 -13695 -2220 -181 -56 -332
-102 -333 -104 -2 -2 89 -108 203 -236 114 -127 209 -238 212 -245 3 -8 11
-14 18 -14 7 0 93 25 191 56 775 241 1660 491 2380 674 175 45 327 84 337 86
16 5 17 -81 17 -1700 0 -1117 3 -1706 10 -1706 5 0 114 30 242 66 350 99 860
234 1261 334 270 68 374 90 425 90 101 1 1479 -50 1540 -56 l53 -6 837 -775
c460 -427 857 -794 881 -817 l44 -41 -32 46 c-18 25 -362 498 -765 1050 -404
552 -732 1005 -731 1007 2 2 108 23 236 48 196 37 377 69 924 164 28 4 50 8
51 7 5 -13 243 -318 395 -507 880 -1095 1932 -2155 3109 -3131 833 -691 1872
-1443 2827 -2044 122 -77 219 -143 215 -147 -4 -4 -72 -41 -152 -83 -80 -42
-148 -80 -152 -84 -4 -4 64 -52 151 -106 114 -72 157 -103 150 -112 -17 -20
-568 -290 -749 -366 -520 -220 -987 -351 -1495 -421 -93 -13 -163 -26 -155
-29 34 -14 265 -68 413 -97 87 -17 348 -58 580 -92 562 -81 660 -82 877 -5
118 41 135 50 527 288 191 116 353 212 358 212 6 0 179 -103 385 -228 412
-251 477 -285 595 -315 135 -35 226 -30 715 39 239 35 507 76 595 92 173 32
455 97 467 108 4 4 -56 15 -135 24 -555 70 -1152 250 -1749 528 -163 76 -456
225 -506 257 -21 14 -17 17 135 113 87 55 159 103 160 107 2 4 -62 40 -141 80
-79 40 -151 78 -160 85 -14 10 15 31 191 142 274 172 891 582 1172 780 1557
1095 2916 2287 4067 3565 355 395 773 899 1037 1251 l57 76 113 -19 c266 -44
1075 -193 1104 -203 7 -2 -292 -422 -709 -992 -396 -543 -736 -1010 -756
-1038 l-35 -50 44 41 c24 23 421 390 881 817 l837 775 53 6 c29 3 367 17 751
31 l698 25 377 -95 c441 -111 797 -205 1190 -316 156 -43 288 -79 293 -79 5 0
9 694 9 1725 0 1178 3 1725 10 1725 17 0 474 -116 812 -205 576 -154 1229
-341 1808 -519 135 -42 248 -76 253 -76 4 0 7 9 7 20 0 14 73 78 245 216 l245
196 47 -16 c25 -9 48 -14 50 -12 2 2 3 27 1 56 l-3 52 -45 -36 c-25 -20 -51
-36 -58 -36 -8 0 -100 27 -205 59 -347 107 -686 208 -1077 319 -3992 1137
-7990 1772 -12105 1922 -804 29 -2123 38 -2925 19z m2465 -550 c3257 -79 6538
-491 9690 -1217 l250 -58 3 -1288 c2 -1126 0 -1287 -13 -1283 -8 4 -135 40
-282 81 -3033 846 -6051 1337 -9113 1481 -675 31 -1041 39 -1865 39 -824 0
-1190 -8 -1865 -39 -2899 -136 -5756 -583 -8620 -1346 -239 -64 -751 -206
-775 -216 -13 -4 -15 156 -15 1260 l0 1265 132 32 c598 142 1435 319 2103 445
3463 651 6875 929 10370 844z m-560 -3189 c1497 -31 2817 -123 4300 -301 143
-17 262 -33 264 -35 4 -3 -202 -259 -358 -444 -674 -800 -1441 -1578 -2261
-2296 -744 -651 -1588 -1300 -2449 -1883 -193 -130 -195 -131 -220 -115 -289
184 -1062 738 -1481 1062 -830 643 -1491 1222 -2206 1937 -567 566 -945 985
-1427 1577 -99 122 -135 173 -125 178 7 4 58 12 113 19 55 6 217 24 360 41
1790 205 3721 296 5490 260z"/>
<path d="M14540 10593 c-29 -3 -55 -24 -152 -121 l-118 -117 0 -173 0 -173
118 -114 117 -114 408 -1 407 0 0 -115 0 -115 -486 0 -486 0 -40 -39 -39 -39
3 -117 3 -117 590 1 590 2 118 117 117 117 0 175 0 175 -117 117 -118 118
-407 0 -408 0 0 115 0 115 473 0 473 0 32 33 33 34 -3 119 -3 119 -535 1
c-294 0 -551 -1 -570 -3z"/>
<path d="M13775 10579 c-280 -8 -881 -35 -1042 -46 l-93 -6 0 -155 0 -155 93
6 c50 4 160 9 242 12 83 3 167 8 188 10 l37 5 0 -525 0 -525 173 6 c94 3 178
7 185 10 9 3 12 116 12 522 l0 519 92 7 c50 3 156 6 235 6 l143 0 40 36 40 36
0 124 0 124 -37 -2 c-21 0 -159 -5 -308 -9z"/>
<path d="M16410 9905 l0 -674 33 -5 c17 -3 147 -8 287 -11 140 -3 381 -13 535
-20 390 -20 387 -20 424 11 l31 26 0 123 0 123 -62 6 c-85 8 -428 24 -675 32
l-203 7 0 522 0 522 -92 7 c-50 3 -133 6 -185 6 l-93 0 0 -675z"/>
<path d="M17887 10514 c-4 -4 -7 -308 -7 -676 0 -526 3 -670 13 -673 6 -2 127
-11 267 -20 228 -14 432 -29 902 -67 l148 -12 30 29 30 29 0 123 c0 68 -3 123
-8 123 -4 0 -108 9 -232 20 -124 10 -322 26 -440 34 -118 9 -243 18 -277 22
l-63 6 0 110 0 111 103 -7 c139 -10 586 -44 670 -52 l67 -7 0 140 0 140 -52 6
c-29 3 -218 18 -420 33 l-368 28 0 113 0 113 53 0 c51 0 591 -40 801 -60 99
-9 100 -9 132 18 l33 27 0 126 1 125 -202 17 c-343 29 -553 45 -803 61 -132 9
-269 18 -305 21 -36 3 -69 3 -73 -1z"/>
<path d="M11850 10479 c-343 -25 -853 -69 -867 -74 -10 -3 -13 -148 -13 -680
0 -371 3 -675 8 -675 4 0 79 7 167 15 88 8 168 15 177 15 16 0 18 18 20 193
l3 192 200 17 c110 9 219 17 242 17 l42 1 143 -181 143 -181 60 6 c33 3 122 9
198 12 75 4 137 11 137 16 0 5 -61 85 -135 180 l-135 171 89 96 c49 53 103
109 120 125 l31 30 0 256 0 257 -114 106 -114 107 -79 -1 c-43 -1 -188 -10
-323 -20z m260 -483 l0 -194 -82 -6 c-46 -3 -202 -15 -348 -26 -146 -11 -282
-22 -302 -25 l-38 -5 0 195 c0 107 3 195 7 195 4 0 154 11 333 25 179 14 345
26 370 28 25 2 48 4 53 5 4 1 7 -85 7 -192z"/>
<path d="M10255 10335 c-115 -13 -330 -38 -476 -56 l-267 -32 -116 -131 -116
-131 0 -445 0 -446 97 -84 c53 -47 106 -92 118 -101 19 -16 37 -15 260 12 132
16 364 42 516 58 l277 30 49 53 c27 29 79 85 116 125 l67 72 0 449 0 450 -112
101 c-133 118 -93 111 -413 76z m155 -663 l0 -368 -337 -37 c-186 -21 -357
-41 -380 -44 l-43 -6 0 370 0 370 68 7 c37 4 198 22 357 40 160 19 300 35 313
35 l22 1 0 -368z"/>
<path d="M19820 10356 c0 -3 -90 -297 -201 -652 -110 -356 -197 -650 -192
-654 11 -10 346 -40 355 -32 3 4 27 74 53 157 25 82 47 150 48 151 8 7 692
-78 697 -86 3 -6 26 -79 50 -163 24 -83 46 -155 49 -159 8 -9 350 -52 357 -45
3 3 -81 304 -186 669 -106 365 -197 677 -202 695 -6 23 -16 33 -36 37 -24 5
-535 63 -724 82 -38 3 -68 4 -68 0z m427 -348 l113 -12 25 -80 c13 -45 44
-146 69 -226 24 -80 42 -146 41 -148 -2 -2 -119 9 -260 25 -166 18 -259 32
-262 40 -4 9 42 158 122 401 5 15 10 15 152 0z"/>
<path d="M21266 10077 l-116 -100 0 -448 0 -448 116 -131 c63 -71 117 -130
120 -130 19 0 754 -109 967 -143 147 -24 270 -41 272 -38 3 2 5 185 5 407 l0
402 -67 12 c-140 24 -635 100 -654 100 -19 0 -19 -7 -17 -137 l3 -137 175 -27
c96 -15 178 -28 183 -28 4 -1 7 -53 7 -117 l0 -116 -27 6 c-46 9 -692 106
-709 106 -2 0 -4 166 -4 370 l0 370 28 -6 c15 -2 106 -16 202 -29 96 -14 309
-46 472 -71 l297 -47 36 27 36 27 -3 122 -3 121 -75 13 c-182 31 -675 106
-892 136 l-237 33 -115 -99z"/>
<path d="M8735 10144 c-49 -7 -184 -27 -300 -44 -306 -45 -826 -129 -836 -136
-5 -3 -9 -298 -9 -680 l0 -676 28 6 c35 7 328 56 336 56 3 0 6 74 6 164 0 162
0 164 23 169 27 7 730 113 809 122 31 4 63 12 71 19 7 6 62 66 120 133 l107
121 0 280 0 281 -116 100 c-63 56 -123 100 -132 100 -9 -1 -57 -7 -107 -15z
m-15 -517 l0 -203 -92 -13 c-112 -14 -602 -89 -640 -97 l-28 -6 0 205 0 204
173 27 c326 52 542 84 565 85 l22 1 0 -203z"/>
<path d="M22810 9395 l0 -555 117 -137 c64 -76 116 -139 117 -140 1 0 118 -22
261 -48 143 -25 374 -68 514 -96 l255 -49 50 40 c28 21 81 64 119 95 l67 55 0
555 0 555 -25 10 c-19 7 -326 70 -342 70 -2 0 -3 -234 -3 -520 0 -357 -3 -520
-11 -520 -5 0 -141 25 -302 55 -161 30 -326 60 -367 68 l-75 13 -5 524 -5 525
-155 27 c-85 15 -167 27 -182 28 l-28 0 0 -555z"/>
<path d="M7285 9915 c-38 -8 -173 -32 -300 -55 -348 -62 -727 -138 -736 -147
-4 -4 -57 -68 -118 -142 l-111 -134 0 -173 0 -172 116 -93 116 -93 67 12 c36
7 194 36 351 66 157 30 306 57 333 61 l47 7 0 -114 0 -113 -132 -24 c-73 -12
-290 -54 -481 -91 -377 -75 -345 -63 -404 -139 -8 -11 -12 -57 -13 -135 0
-118 0 -118 23 -113 58 14 620 123 867 168 198 36 280 54 292 67 9 9 62 71
117 137 l101 120 0 176 0 177 -117 95 -118 95 -50 -9 c-27 -5 -196 -37 -375
-70 -179 -33 -335 -63 -347 -66 -23 -5 -23 -4 -23 110 l0 116 53 10 c255 50
348 67 592 111 l280 50 32 38 32 37 1 123 c0 92 -3 122 -12 121 -7 0 -44 -7
-83 -14z"/>
<path d="M5500 9565 c-184 -40 -463 -103 -620 -139 -157 -37 -309 -72 -337
-79 l-53 -11 0 -678 c0 -373 3 -678 6 -678 3 0 40 9 82 19 146 37 608 142 907
206 l300 65 37 42 38 43 0 118 c0 71 -4 117 -10 117 -16 0 -467 -96 -742 -159
l-258 -58 0 112 0 112 228 51 c125 29 308 69 407 91 l180 38 3 140 3 141 -118
-25 c-65 -13 -237 -51 -383 -84 -146 -33 -277 -62 -292 -66 l-28 -5 0 115 c0
102 2 116 18 121 41 11 359 83 628 140 286 62 292 64 323 97 17 19 33 43 36
54 10 34 1 228 -10 231 -5 1 -161 -31 -345 -71z"/>
<path d="M24495 9628 c-3 -7 -4 -312 -3 -678 l3 -665 175 -37 c272 -58 746
-164 946 -211 l182 -43 31 25 31 26 0 121 0 122 -112 27 c-204 48 -711 163
-800 182 l-88 18 0 112 c0 112 0 113 23 108 12 -3 135 -30 272 -61 138 -30
306 -68 374 -84 68 -17 129 -30 137 -30 11 0 14 27 14 138 l0 137 -123 28
c-67 16 -241 55 -387 88 -146 32 -275 61 -287 64 -22 5 -23 9 -23 120 0 65 4
115 9 115 14 0 523 -114 721 -161 91 -21 175 -41 187 -44 14 -3 32 4 52 21
l31 26 0 122 0 122 -52 11 c-29 7 -197 45 -373 86 -176 41 -450 103 -610 137
-159 34 -298 64 -308 66 -9 3 -19 -1 -22 -8z"/>
<path d="M5493 5659 c10 -207 66 -416 171 -634 260 -541 730 -933 1326 -1103
58 -16 125 -33 149 -37 l44 -7 -6 103 c-41 658 -641 1356 -1490 1734 -79 35
-156 67 -172 71 l-28 7 6 -134z"/>
<path d="M24467 5616 c-250 -108 -478 -242 -692 -405 -114 -87 -365 -332 -448
-437 -237 -302 -387 -667 -387 -941 l0 -73 28 6 c675 147 1203 554 1488 1149
65 134 116 285 144 425 24 118 38 324 23 333 -5 3 -75 -22 -156 -57z"/>
<path d="M7402 4762 c-38 -87 -53 -166 -59 -292 -19 -451 246 -889 737 -1217
128 -85 191 -118 200 -103 17 27 35 180 34 290 -5 489 -288 956 -789 1302 -44
30 -85 58 -91 61 -7 4 -20 -12 -32 -41z"/>
<path d="M22608 4637 c-302 -206 -545 -477 -672 -747 -91 -197 -130 -363 -130
-570 -1 -125 14 -263 31 -293 10 -17 226 121 368 233 216 172 405 415 486 624
64 165 82 256 83 421 0 114 -4 166 -17 215 -20 77 -57 170 -66 170 -3 0 -41
-24 -83 -53z"/>
<path d="M8701 3908 c-75 -229 -42 -518 89 -779 190 -377 539 -671 1020 -859
85 -33 102 -36 107 -24 3 9 3 84 0 167 -23 608 -412 1149 -1072 1493 l-123 65
-21 -63z"/>
<path d="M21262 3785 c-237 -124 -411 -254 -592 -442 -252 -261 -399 -540
-455 -867 -16 -96 -21 -356 -6 -356 21 0 203 75 308 126 356 176 642 442 795
741 113 218 163 452 139 645 -12 90 -46 218 -59 218 -4 0 -62 -29 -130 -65z"/>
<path d="M6515 3605 c-89 -16 -151 -38 -242 -82 l-73 -35 33 -42 c17 -22 77
-86 132 -141 468 -469 1042 -634 1554 -446 85 31 221 105 221 120 0 9 -181
145 -290 218 -486 324 -979 474 -1335 408z"/>
<path d="M23295 3499 c-347 -36 -791 -235 -1199 -540 -145 -108 -145 -96 -6
-168 156 -81 332 -121 529 -121 352 0 687 132 999 394 100 84 287 279 287 299
0 37 -229 120 -377 136 -107 12 -117 12 -233 0z"/>
<path d="M10223 3094 c-4 -27 -7 -105 -7 -174 4 -310 146 -607 411 -861 235
-225 577 -393 961 -473 171 -36 166 -37 158 24 -12 87 -53 236 -96 342 -180
452 -572 840 -1075 1065 -106 48 -274 111 -315 119 -27 6 -29 4 -37 -42z"/>
<path d="M19755 2986 c-660 -232 -1135 -680 -1324 -1251 -39 -119 -74 -287
-60 -293 14 -6 259 48 371 82 663 201 1096 655 1159 1212 10 89 -1 249 -19
280 -5 9 -39 1 -127 -30z"/>
<path d="M8125 2459 c-225 -25 -460 -118 -593 -235 l-46 -41 101 -75 c283
-211 580 -349 893 -415 111 -24 147 -27 325 -27 170 0 215 3 302 22 175 38
333 104 464 192 62 43 219 186 219 200 0 4 -42 26 -92 48 -600 262 -1149 377
-1573 331z"/>
<path d="M21540 2339 c-284 -34 -612 -123 -950 -256 -179 -71 -260 -109 -260
-122 0 -13 130 -134 196 -182 232 -171 594 -261 914 -230 249 25 464 87 696
201 136 67 331 189 441 277 l53 42 -51 44 c-104 91 -280 171 -469 212 -89 20
-452 29 -570 14z"/>
<path d="M10151 1559 c-250 -27 -497 -106 -666 -214 -64 -41 -182 -141 -195
-165 -9 -17 3 -27 110 -90 613 -363 1277 -436 1786 -194 169 80 348 224 471
379 47 60 60 81 49 87 -48 27 -510 131 -726 163 -276 42 -617 56 -829 34z"/>
<path d="M19570 1454 c-217 -12 -424 -39 -680 -90 -158 -31 -479 -110 -489
-120 -2 -2 15 -29 39 -60 198 -263 482 -440 823 -515 135 -30 405 -36 562 -15
330 47 667 174 965 364 l55 35 -65 60 c-194 179 -459 289 -790 326 -102 11
-329 19 -420 15z"/>
</g>
</svg>
